<?xml version="1.0" standalone="no"?><!DOCTYPE svg PUBLIC "-//W3C//DTD SVG 1.1//EN" "http://www.w3.org/Graphics/SVG/1.1/DTD/svg11.dtd"><svg t="1694252520692" class="icon" viewBox="0 0 1024 1024" version="1.1" xmlns="http://www.w3.org/2000/svg" p-id="14491" xmlns:xlink="http://www.w3.org/1999/xlink" width="32" height="32"><path d="M128 512m48 0l672 0q48 0 48 48l0 192q0 48-48 48l-672 0q-48 0-48-48l0-192q0-48 48-48Z" fill="#5BC9E1" p-id="14492"></path><path d="M512 224m-48 0a48 48 0 1 0 96 0 48 48 0 1 0-96 0Z" fill="#FFDD00" p-id="14493"></path><path d="M741.84 784H176a32 32 0 0 1-32-32V560a32 32 0 0 1 32-32h164.32a16 16 0 0 0 0-32h-77.68l216.8-216.88a64 64 0 0 0 65.04 0l109.2 109.2a16 16 0 0 0 22.64-22.64L567.04 256.48A64 64 0 0 0 512 160a16 16 0 0 0 0 32 32 32 0 1 1-27.92 16 16 16 0 0 0-27.92-16 64 64 0 0 0 0.72 64L217.36 496H176a64 64 0 0 0-64 64v192a64 64 0 0 0 64 64h565.84a16 16 0 0 0 0-32z" fill="#314967" p-id="14494"></path><path d="M848 496h-41.36L704.72 394.08a16 16 0 0 0-22.64 22.64L761.36 496H608a16 16 0 0 0 0 32h240a32 32 0 0 1 32 32v192a32 32 0 0 1-32 32h-59.92a16 16 0 0 0 0 32H848a64 64 0 0 0 64-64V560a64 64 0 0 0-64-64zM560 496H393.76a16 16 0 0 0 0 32H560a16 16 0 0 0 0-32zM438.88 588.96a17.6 17.6 0 0 0-17.52 17.52v102.4a17.6 17.6 0 0 0 35.28 0v-29.6h13.36a45.12 45.12 0 1 0 0-90.32zM480 634.16c0 11.92-13.12 9.84-23.44 9.84V624c10.8 0 23.44-1.76 23.44 10.16zM616 624c22.88 0 23.44-35.28 0-35.28h-56.64a17.36 17.36 0 0 0-17.52 17.52v102.4a17.6 17.6 0 0 0 10 16v1.68h64c23.28 0 22.96-35.28 0-35.28h-38.8v-16h32.48a17.6 17.6 0 0 0 0-35.28h-32.48V624z" fill="#314967" p-id="14495"></path><path d="M773.04 608c0-22.64-34.96-23.2-34.96 0v46.8l-41.52-57.52A17.44 17.44 0 0 0 665.04 608v100.96a17.44 17.44 0 0 0 34.96 0v-47.28l40.8 56.64a17.52 17.52 0 0 0 32-9.36zM318.72 585.52a70.56 70.56 0 0 0 0 140.96A69.52 69.52 0 0 0 385.76 656c0-37.52-29.84-70.48-67.04-70.48z m0 105.2c-42.4 0-42.08-69.44 0-69.44a34.88 34.88 0 0 1 0 69.44z" fill="#314967" p-id="14496"></path></svg>